<?xml version="1.0" encoding="utf-8"?>
<svg version="1.1" id="Layer_1"
     xmlns="http://www.w3.org/2000/svg"
     x="0px" y="0px"
     width="40px" height="40px" viewBox="0 0 40 40">
    <linearGradient
            id="SVGID_1_" gradientUnits="userSpaceOnUse"
            x1="1.6494" y1="38.4746" x2="36.4744" y2="3.6496">
        <stop offset="0.1608" style="stop-color:#00F561"/>
        <stop offset="0.5412" style="stop-color:#0297CE"/>
        <stop offset="0.9373" style="stop-color:#7A2DFF"/>
    </linearGradient>
    <path fill-rule="evenodd" clip-rule="evenodd" fill="url(#SVGID_1_)" d="M20,26.75l-1.7,1.7v4.6h3.45v-4.6L20,26.75z M19,23.65
	c0.267-0.301,0.6-0.45,1-0.45c0.4,0,0.783,0.149,1.15,0.45l3.199,3.199c0.233,0.267,0.351,0.601,0.351,1v6.65
	c0,0.434-0.117,0.816-0.351,1.15C23.983,35.884,23.6,36,23.2,36h-6.4c-0.4,0-0.733-0.116-1-0.35c-0.3-0.334-0.45-0.717-0.45-1.15
	v-6.65c0-0.399,0.15-0.733,0.45-1L19,23.65z M4,16.8c0-0.4,0.167-0.733,0.5-1c0.233-0.333,0.567-0.5,1-0.5h6.65
	c0.4,0,0.767,0.167,1.1,0.5l3.2,3.2c0.233,0.267,0.35,0.6,0.35,1s-0.117,0.767-0.35,1.1l-3.2,3.2c-0.333,0.233-0.7,0.351-1.1,0.351
	H5.5c-0.433,0-0.767-0.117-1-0.351C4.167,23.967,4,23.6,4,23.2V16.8z M6.95,18.25v3.45h4.6l1.7-1.7l-1.7-1.75H6.95z M26.75,20
	l1.75,1.7h4.55v-3.45H28.5L26.75,20z M26.9,15.8c0.233-0.333,0.566-0.5,1-0.5h6.649c0.4,0,0.767,0.167,1.101,0.5
	c0.233,0.267,0.35,0.6,0.35,1v6.4c0,0.399-0.116,0.767-0.35,1.1c-0.334,0.233-0.7,0.351-1.101,0.351H27.9
	c-0.434,0-0.767-0.117-1-0.351l-3.2-3.2c-0.334-0.333-0.5-0.7-0.5-1.1s0.166-0.733,0.5-1L26.9,15.8z M21.75,11.5V6.95H18.3v4.55
	l1.7,1.75L21.75,11.5z M23.2,4c0.399,0,0.783,0.15,1.149,0.45c0.233,0.267,0.351,0.6,0.351,1v6.65c0,0.433-0.117,0.816-0.351,1.15
	l-3.199,3.2C20.783,16.683,20.4,16.8,20,16.8c-0.4,0-0.733-0.117-1-0.35l-3.2-3.2c-0.3-0.333-0.45-0.717-0.45-1.15V5.45
	c0-0.4,0.15-0.733,0.45-1c0.267-0.3,0.6-0.45,1-0.45H23.2z"/>
</svg>
